<mxfile host="drawio-plugin" modified="2023-05-27T06:18:54.628Z" agent="5.0 (Macintosh; Intel Mac OS X 10_15_7) AppleWebKit/537.36 (KHTML, like Gecko) Chrome/104.0.5112.102 Safari/537.36" etag="qZxsbFFC8Bdnu8H7k0BM" version="20.5.3" type="embed" pages="2"><diagram name="클래스 다이어그램" id="fg0hdYamoDkEO5FkSazv"><mxGraphModel dx="1008" dy="482" grid="1" gridSize="10" guides="1" tooltips="1" connect="1" arrows="1" fold="1" page="1" pageScale="1" pageWidth="827" pageHeight="1169" math="0" shadow="0"><root><mxCell id="0"/><mxCell id="1" parent="0"/><mxCell id="N9k6go1t3sRG1Ku_PZO6-28" style="edgeStyle=orthogonalEdgeStyle;rounded=0;orthogonalLoop=1;jettySize=auto;html=1;" parent="1" source="N9k6go1t3sRG1Ku_PZO6-14" target="N9k6go1t3sRG1Ku_PZO6-21" edge="1"><mxGeometry relative="1" as="geometry"/></mxCell><mxCell id="N9k6go1t3sRG1Ku_PZO6-31" style="edgeStyle=orthogonalEdgeStyle;rounded=0;orthogonalLoop=1;jettySize=auto;html=1;dashed=1;" parent="1" source="N9k6go1t3sRG1Ku_PZO6-14" target="N9k6go1t3sRG1Ku_PZO6-30" edge="1"><mxGeometry relative="1" as="geometry"/></mxCell><mxCell id="N9k6go1t3sRG1Ku_PZO6-14" value="&lt;p style=&quot;margin:0px;margin-top:4px;text-align:center;&quot;&gt;&lt;b&gt;Showing&lt;/b&gt;&lt;/p&gt;&lt;hr size=&quot;1&quot;&gt;&lt;p style=&quot;margin:0px;margin-left:4px;&quot;&gt;+ field: Type&lt;/p&gt;&lt;hr size=&quot;1&quot;&gt;&lt;p style=&quot;margin:0px;margin-left:4px;&quot;&gt;+ reserve(Movie) : ShowingResult&lt;/p&gt;" style="verticalAlign=top;align=left;overflow=fill;fontSize=12;fontFamily=Helvetica;html=1;whiteSpace=wrap;" parent="1" vertex="1"><mxGeometry x="30" y="40" width="210" height="90" as="geometry"/></mxCell><mxCell id="N9k6go1t3sRG1Ku_PZO6-21" value="&lt;p style=&quot;margin:0px;margin-top:4px;text-align:center;&quot;&gt;&lt;b&gt;Reservation&lt;/b&gt;&lt;/p&gt;&lt;hr size=&quot;1&quot;&gt;&lt;p style=&quot;margin:0px;margin-left:4px;&quot;&gt;+ field: Type&lt;/p&gt;&lt;hr size=&quot;1&quot;&gt;&lt;p style=&quot;margin:0px;margin-left:4px;&quot;&gt;+ reserve() ReservationInfo&lt;/p&gt;" style="verticalAlign=top;align=left;overflow=fill;fontSize=12;fontFamily=Helvetica;html=1;whiteSpace=wrap;" parent="1" vertex="1"><mxGeometry x="460" y="40" width="160" height="90" as="geometry"/></mxCell><mxCell id="N9k6go1t3sRG1Ku_PZO6-33" style="edgeStyle=orthogonalEdgeStyle;rounded=0;orthogonalLoop=1;jettySize=auto;html=1;" parent="1" source="N9k6go1t3sRG1Ku_PZO6-30" target="N9k6go1t3sRG1Ku_PZO6-32" edge="1"><mxGeometry relative="1" as="geometry"/></mxCell><mxCell id="N9k6go1t3sRG1Ku_PZO6-30" value="&lt;p style=&quot;margin:0px;margin-top:4px;text-align:center;&quot;&gt;&lt;b&gt;Movie&lt;/b&gt;&lt;/p&gt;&lt;hr size=&quot;1&quot;&gt;&lt;p style=&quot;margin:0px;margin-left:4px;&quot;&gt;+ field: Type&lt;/p&gt;&lt;hr size=&quot;1&quot;&gt;&lt;p style=&quot;margin:0px;margin-left:4px;&quot;&gt;+ calcuratePrice() : Integer&lt;/p&gt;" style="verticalAlign=top;align=left;overflow=fill;fontSize=12;fontFamily=Helvetica;html=1;whiteSpace=wrap;" parent="1" vertex="1"><mxGeometry x="55" y="200" width="160" height="90" as="geometry"/></mxCell><mxCell id="N9k6go1t3sRG1Ku_PZO6-35" style="edgeStyle=orthogonalEdgeStyle;rounded=0;orthogonalLoop=1;jettySize=auto;html=1;" parent="1" source="N9k6go1t3sRG1Ku_PZO6-32" target="N9k6go1t3sRG1Ku_PZO6-34" edge="1"><mxGeometry relative="1" as="geometry"/></mxCell><mxCell id="N9k6go1t3sRG1Ku_PZO6-32" value="&lt;p style=&quot;margin:0px;margin-top:4px;text-align:center;&quot;&gt;&lt;b&gt;Discounter&lt;/b&gt;&lt;/p&gt;&lt;hr size=&quot;1&quot;&gt;&lt;p style=&quot;margin:0px;margin-left:4px;&quot;&gt;+ field: Type&lt;/p&gt;&lt;hr size=&quot;1&quot;&gt;&lt;p style=&quot;margin:0px;margin-left:4px;&quot;&gt;+ calcuratePriceDiscountered() : Integer&lt;/p&gt;" style="verticalAlign=top;align=left;overflow=fill;fontSize=12;fontFamily=Helvetica;html=1;whiteSpace=wrap;" parent="1" vertex="1"><mxGeometry x="26.25" y="370" width="217.5" height="90" as="geometry"/></mxCell><mxCell id="N9k6go1t3sRG1Ku_PZO6-34" value="&lt;p style=&quot;margin:0px;margin-top:4px;text-align:center;&quot;&gt;&lt;b&gt;Discounter Rule&lt;/b&gt;&lt;/p&gt;&lt;hr size=&quot;1&quot;&gt;&lt;p style=&quot;margin:0px;margin-left:4px;&quot;&gt;+ field: Type&lt;/p&gt;&lt;hr size=&quot;1&quot;&gt;&lt;p style=&quot;margin:0px;margin-left:4px;&quot;&gt;+ isAbledDiscounter() ; boolean&lt;/p&gt;" style="verticalAlign=top;align=left;overflow=fill;fontSize=12;fontFamily=Helvetica;html=1;whiteSpace=wrap;" parent="1" vertex="1"><mxGeometry x="460" y="370" width="200" height="90" as="geometry"/></mxCell><mxCell id="N9k6go1t3sRG1Ku_PZO6-37" value="&lt;font style=&quot;font-size: 13px;&quot;&gt;예약 생성해라&lt;/font&gt;" style="text;html=1;align=center;verticalAlign=middle;resizable=0;points=[];autosize=1;strokeColor=none;fillColor=none;fontSize=11;fontFamily=Helvetica;fontColor=default;" parent="1" vertex="1"><mxGeometry x="310" y="50" width="90" height="30" as="geometry"/></mxCell><mxCell id="N9k6go1t3sRG1Ku_PZO6-38" value="&lt;font style=&quot;font-size: 13px;&quot;&gt;가격을 계산하라&lt;/font&gt;" style="text;html=1;align=center;verticalAlign=middle;resizable=0;points=[];autosize=1;strokeColor=none;fillColor=none;fontSize=11;fontFamily=Helvetica;fontColor=default;" parent="1" vertex="1"><mxGeometry x="160" y="148" width="110" height="30" as="geometry"/></mxCell><mxCell id="N9k6go1t3sRG1Ku_PZO6-39" value="할인된 가격을 계산하라" style="text;html=1;align=center;verticalAlign=middle;resizable=0;points=[];autosize=1;strokeColor=none;fillColor=none;fontSize=11;fontFamily=Helvetica;fontColor=default;" parent="1" vertex="1"><mxGeometry x="160" y="308" width="140" height="30" as="geometry"/></mxCell><mxCell id="N9k6go1t3sRG1Ku_PZO6-40" value="할인 여부를 판단하라" style="text;html=1;align=center;verticalAlign=middle;resizable=0;points=[];autosize=1;strokeColor=none;fillColor=none;fontSize=11;fontFamily=Helvetica;fontColor=default;" parent="1" vertex="1"><mxGeometry x="280" y="388" width="130" height="30" as="geometry"/></mxCell><mxCell id="toro-8yTVN0GT57zgmqv-1" value="&lt;enum&gt;&#10;ShowingResult" style="swimlane;fontStyle=0;childLayout=stackLayout;horizontal=1;startSize=40;fillColor=none;horizontalStack=0;resizeParent=1;resizeParentMax=0;resizeLast=0;collapsible=1;marginBottom=0;fontSize=13;" vertex="1" parent="1"><mxGeometry x="190" y="500" width="140" height="148" as="geometry"/></mxCell><mxCell id="toro-8yTVN0GT57zgmqv-2" value="+ SUCCESS" style="text;strokeColor=none;fillColor=none;align=left;verticalAlign=top;spacingLeft=4;spacingRight=4;overflow=hidden;rotatable=0;points=[[0,0.5],[1,0.5]];portConstraint=eastwest;fontSize=13;" vertex="1" parent="toro-8yTVN0GT57zgmqv-1"><mxGeometry y="40" width="140" height="26" as="geometry"/></mxCell><mxCell id="toro-8yTVN0GT57zgmqv-3" value="+ FAIL" style="text;strokeColor=none;fillColor=none;align=left;verticalAlign=top;spacingLeft=4;spacingRight=4;overflow=hidden;rotatable=0;points=[[0,0.5],[1,0.5]];portConstraint=eastwest;fontSize=13;" vertex="1" parent="toro-8yTVN0GT57zgmqv-1"><mxGeometry y="66" width="140" height="26" as="geometry"/></mxCell><mxCell id="toro-8yTVN0GT57zgmqv-4" value="+ &#10;" style="text;strokeColor=none;fillColor=none;align=left;verticalAlign=top;spacingLeft=4;spacingRight=4;overflow=hidden;rotatable=0;points=[[0,0.5],[1,0.5]];portConstraint=eastwest;fontSize=13;" vertex="1" parent="toro-8yTVN0GT57zgmqv-1"><mxGeometry y="92" width="140" height="28" as="geometry"/></mxCell><mxCell id="toro-8yTVN0GT57zgmqv-5" value="+ &#10;" style="text;strokeColor=none;fillColor=none;align=left;verticalAlign=top;spacingLeft=4;spacingRight=4;overflow=hidden;rotatable=0;points=[[0,0.5],[1,0.5]];portConstraint=eastwest;fontSize=13;" vertex="1" parent="toro-8yTVN0GT57zgmqv-1"><mxGeometry y="120" width="140" height="28" as="geometry"/></mxCell></root></mxGraphModel></diagram><diagram id="t-sJr2Lxvibr4370Rk68" name="시퀀스 다이어그램"><mxGraphModel dx="1117" dy="759" grid="1" gridSize="10" guides="1" tooltips="1" connect="1" arrows="1" fold="1" page="1" pageScale="1" pageWidth="827" pageHeight="1169" math="0" shadow="0"><root><mxCell id="0"/><mxCell id="1" parent="0"/><mxCell id="p2jNRnlfr26-qJUX-Efz-4" style="edgeStyle=elbowEdgeStyle;shape=connector;curved=0;rounded=0;orthogonalLoop=1;jettySize=auto;elbow=vertical;html=1;labelBackgroundColor=default;strokeColor=default;fontFamily=Helvetica;fontSize=11;fontColor=default;endArrow=block;" parent="1" source="p2jNRnlfr26-qJUX-Efz-1" target="p2jNRnlfr26-qJUX-Efz-2" edge="1"><mxGeometry relative="1" as="geometry"><Array as="points"><mxPoint x="240" y="140"/></Array></mxGeometry></mxCell><mxCell id="p2jNRnlfr26-qJUX-Efz-1" value="&lt;b&gt;Showing&lt;/b&gt;" style="shape=umlLifeline;perimeter=lifelinePerimeter;whiteSpace=wrap;html=1;container=1;dropTarget=0;collapsible=0;recursiveResize=0;outlineConnect=0;portConstraint=eastwest;newEdgeStyle={&quot;edgeStyle&quot;:&quot;elbowEdgeStyle&quot;,&quot;elbow&quot;:&quot;vertical&quot;,&quot;curved&quot;:0,&quot;rounded&quot;:0};fontFamily=Helvetica;fontSize=11;fontColor=default;" parent="1" vertex="1"><mxGeometry x="100" y="40" width="100" height="240" as="geometry"/></mxCell><mxCell id="p2jNRnlfr26-qJUX-Efz-11" style="edgeStyle=elbowEdgeStyle;shape=connector;curved=0;rounded=0;orthogonalLoop=1;jettySize=auto;elbow=vertical;html=1;labelBackgroundColor=default;strokeColor=default;fontFamily=Helvetica;fontSize=11;fontColor=default;endArrow=block;" parent="1" source="p2jNRnlfr26-qJUX-Efz-1" target="p2jNRnlfr26-qJUX-Efz-3" edge="1"><mxGeometry relative="1" as="geometry"><Array as="points"><mxPoint x="360" y="220"/><mxPoint x="260" y="200"/></Array></mxGeometry></mxCell><mxCell id="p2jNRnlfr26-qJUX-Efz-14" style="edgeStyle=elbowEdgeStyle;shape=connector;curved=0;rounded=0;orthogonalLoop=1;jettySize=auto;elbow=vertical;html=1;labelBackgroundColor=default;strokeColor=default;fontFamily=Helvetica;fontSize=11;fontColor=default;endArrow=block;" parent="1" source="p2jNRnlfr26-qJUX-Efz-2" target="p2jNRnlfr26-qJUX-Efz-13" edge="1"><mxGeometry relative="1" as="geometry"/></mxCell><mxCell id="p2jNRnlfr26-qJUX-Efz-2" value="&lt;b&gt;Movie&lt;/b&gt;" style="shape=umlLifeline;perimeter=lifelinePerimeter;whiteSpace=wrap;html=1;container=1;dropTarget=0;collapsible=0;recursiveResize=0;outlineConnect=0;portConstraint=eastwest;newEdgeStyle={&quot;edgeStyle&quot;:&quot;elbowEdgeStyle&quot;,&quot;elbow&quot;:&quot;vertical&quot;,&quot;curved&quot;:0,&quot;rounded&quot;:0};fontFamily=Helvetica;fontSize=11;fontColor=default;" parent="1" vertex="1"><mxGeometry x="270" y="40" width="100" height="240" as="geometry"/></mxCell><mxCell id="p2jNRnlfr26-qJUX-Efz-3" value="&lt;b&gt;Reservation&lt;/b&gt;" style="shape=umlLifeline;perimeter=lifelinePerimeter;whiteSpace=wrap;html=1;container=1;dropTarget=0;collapsible=0;recursiveResize=0;outlineConnect=0;portConstraint=eastwest;newEdgeStyle={&quot;edgeStyle&quot;:&quot;elbowEdgeStyle&quot;,&quot;elbow&quot;:&quot;vertical&quot;,&quot;curved&quot;:0,&quot;rounded&quot;:0};fontFamily=Helvetica;fontSize=11;fontColor=default;" parent="1" vertex="1"><mxGeometry x="560" y="40" width="100" height="240" as="geometry"/></mxCell><mxCell id="p2jNRnlfr26-qJUX-Efz-5" value="가격을 계산하라" style="text;html=1;align=center;verticalAlign=middle;resizable=0;points=[];autosize=1;strokeColor=none;fillColor=none;fontSize=11;fontFamily=Helvetica;fontColor=default;" parent="1" vertex="1"><mxGeometry x="180" y="110" width="100" height="30" as="geometry"/></mxCell><mxCell id="p2jNRnlfr26-qJUX-Efz-10" value="예매하라" style="html=1;verticalAlign=bottom;endArrow=block;edgeStyle=elbowEdgeStyle;elbow=vertical;curved=0;rounded=0;labelBackgroundColor=default;strokeColor=default;fontFamily=Helvetica;fontSize=11;fontColor=default;shape=connector;" parent="1" target="p2jNRnlfr26-qJUX-Efz-1" edge="1"><mxGeometry width="80" relative="1" as="geometry"><mxPoint x="80" y="120" as="sourcePoint"/><mxPoint x="100" y="100" as="targetPoint"/><Array as="points"><mxPoint x="100" y="120"/></Array></mxGeometry></mxCell><mxCell id="p2jNRnlfr26-qJUX-Efz-12" value="예약을 생성해라" style="text;html=1;align=center;verticalAlign=middle;resizable=0;points=[];autosize=1;strokeColor=none;fillColor=none;fontSize=11;fontFamily=Helvetica;fontColor=default;" parent="1" vertex="1"><mxGeometry x="180" y="190" width="100" height="30" as="geometry"/></mxCell><mxCell id="p2jNRnlfr26-qJUX-Efz-13" value="&lt;b&gt;Discounter&lt;/b&gt;" style="shape=umlLifeline;perimeter=lifelinePerimeter;whiteSpace=wrap;html=1;container=1;dropTarget=0;collapsible=0;recursiveResize=0;outlineConnect=0;portConstraint=eastwest;newEdgeStyle={&quot;edgeStyle&quot;:&quot;elbowEdgeStyle&quot;,&quot;elbow&quot;:&quot;vertical&quot;,&quot;curved&quot;:0,&quot;rounded&quot;:0};fontFamily=Helvetica;fontSize=11;fontColor=default;" parent="1" vertex="1"><mxGeometry x="420" y="40" width="100" height="240" as="geometry"/></mxCell><mxCell id="p2jNRnlfr26-qJUX-Efz-15" value="할인된 가격을 계산하라" style="text;html=1;align=center;verticalAlign=middle;resizable=0;points=[];autosize=1;strokeColor=none;fillColor=none;fontSize=11;fontFamily=Helvetica;fontColor=default;" parent="1" vertex="1"><mxGeometry x="320" y="130" width="140" height="30" as="geometry"/></mxCell></root></mxGraphModel></diagram></mxfile>